<?xml version="1.0" encoding="utf-8"?>
<!-- Generator: Adobe Illustrator 25.4.1, SVG Export Plug-In . SVG Version: 6.00 Build 0)  -->
<svg version="1.1" id="Layer_1" xmlns="http://www.w3.org/2000/svg" xmlns:xlink="http://www.w3.org/1999/xlink" x="0px" y="0px"
	 viewBox="0 0 100 100" style="enable-background:new 0 0 100 100;" xml:space="preserve">
<style type="text/css">
	.st0{fill:#fff;}
</style>
<g>
	<path class="st0" d="M66.4,54.8c8-5.1,13.3-13.8,13.3-23.8C79.7,15.3,66.4,2.5,50,2.5S20.3,15.3,20.3,31c0,9.9,5.3,18.6,13.3,23.8
		C15.5,61.2,2.5,77.9,2.5,97.5h7.9c0-21,17.8-38,39.6-38c21.8,0,39.6,17,39.6,38h7.9C97.5,77.9,84.5,61.2,66.4,54.8z M50,51.9
		c-12,0-21.8-9.4-21.8-20.9S38,10.1,50,10.1S71.8,19.5,71.8,31S62,51.9,50,51.9z"/>
</g>
</svg>
